HIERARCHY
ROOT hip
{
  OFFSET 0 0 0
  CHANNELS 6 Xposition Yposition Zposition Zrotation Yrotation Xrotation
  JOINT abdomen
  {
    OFFSET 0 20.6881 -0.73152
    CHANNELS 3 Zrotation Xrotation Yrotation
    JOINT chest
    {
      OFFSET 0 11.7043 -0.48768
      CHANNELS 3 Zrotation Xrotation Yrotation
      JOINT neck
      {
        OFFSET 0 22.1894 -2.19456
        CHANNELS 3 Zrotation Xrotation Yrotation
        JOINT head
        {
          OFFSET -0.24384 7.07133 1.2192
          CHANNELS 3 Zrotation Xrotation Yrotation
          JOINT leftEye
          {
            OFFSET 4.14528 8.04674 8.04672
            CHANNELS 3 Zrotation Xrotation Yrotation
            End Site
            {
              OFFSET 1 0 0
            }
          }
          JOINT rightEye
          {
            OFFSET -3.6576 8.04674 8.04672
            CHANNELS 3 Zrotation Xrotation Yrotation
            End Site
            {
              OFFSET 1 0 0
            }
          }
        }
      }
      JOINT rCollar
      {
        OFFSET -2.68224 19.2634 -4.8768
        CHANNELS 3 Zrotation Xrotation Yrotation
        JOINT rShldr
        {
          OFFSET -8.77824 -1.95073 1.46304
          CHANNELS 3 Zrotation Xrotation Yrotation
          JOINT rForeArm
          {
            OFFSET -28.1742 -1.7115 0.48768
            CHANNELS 3 Zrotation Xrotation Yrotation
            JOINT rHand
            {
              OFFSET -22.5879 0.773209 7.07136
              CHANNELS 3 Zrotation Xrotation Yrotation
              JOINT rThumb1
              {
                OFFSET -1.2192 -0.487915 3.41376
                CHANNELS 3 Zrotation Xrotation Yrotation
                JOINT rThumb2
                {
                  OFFSET -3.37035 -0.52449 3.41376
                  CHANNELS 3 Zrotation Xrotation Yrotation
                  End Site
                  {
                    OFFSET -1.78271 -1.18214 1.43049
                  }
                }
              }
              JOINT rIndex1
              {
                OFFSET -7.75947 0.938293 5.60832
                CHANNELS 3 Zrotation Xrotation Yrotation
                JOINT rIndex2
                {
                  OFFSET -2.54057 -0.884171 1.56538
                  CHANNELS 3 Zrotation Xrotation Yrotation
                  End Site
                  {
                    OFFSET -1.62519 -0.234802 1.16502
                  }
                }
              }
              JOINT rMid1
              {
                OFFSET -8.24714 1.18213 3.41376
                CHANNELS 3 Zrotation Xrotation Yrotation
                JOINT rMid2
                {
                  OFFSET -3.10165 -0.590103 1.0647
                  CHANNELS 3 Zrotation Xrotation Yrotation
                  End Site
                  {
                    OFFSET -2.48547 -0.328903 0.83742
                  }
                }
              }
              JOINT rRing1
              {
                OFFSET -8.82822 0.546677 1.51678
                CHANNELS 3 Zrotation Xrotation Yrotation
                JOINT rRing2
                {
                  OFFSET -2.60934 -0.819778 -0.0198488
                  CHANNELS 3 Zrotation Xrotation Yrotation
                  End Site
                  {
                    OFFSET -2.33842 -0.294052 0.168128
                  }
                }
              }
              JOINT rPinky1
              {
                OFFSET -8.27202 -0.0477905 -0.4584
                CHANNELS 3 Zrotation Xrotation Yrotation
                JOINT rPinky2
                {
                  OFFSET -1.82734 -0.647385 -0.700984
                  CHANNELS 3 Zrotation Xrotation Yrotation
                  End Site
                  {
                    OFFSET -1.69225 -0.51767 -0.607171
                  }
                }
              }
            }
          }
        }
      }
      JOINT lCollar
      {
        OFFSET 2.68224 19.2634 -4.8768
        CHANNELS 3 Zrotation Xrotation Yrotation
        JOINT lShldr
        {
          OFFSET 8.77824 -1.95073 1.46304
          CHANNELS 3 Zrotation Xrotation Yrotation
          JOINT lForeArm
          {
            OFFSET 28.1742 -1.7115 0.48768
            CHANNELS 3 Zrotation Xrotation Yrotation
            JOINT lHand
            {
              OFFSET 22.5879 0.773209 7.07136
              CHANNELS 3 Zrotation Xrotation Yrotation
              JOINT lThumb1
              {
                OFFSET 1.2192 -0.487915 3.41376
                CHANNELS 3 Zrotation Xrotation Yrotation
                JOINT lThumb2
                {
                  OFFSET 3.37035 -0.52449 3.41376
                  CHANNELS 3 Zrotation Xrotation Yrotation
                  End Site
                  {
                    OFFSET 1.78271 -1.18214 1.43049
                  }
                }
              }
              JOINT lIndex1
              {
                OFFSET 7.75947 0.938293 5.60832
                CHANNELS 3 Zrotation Xrotation Yrotation
                JOINT lIndex2
                {
                  OFFSET 2.54057 -0.884171 1.56538
                  CHANNELS 3 Zrotation Xrotation Yrotation
                  End Site
                  {
                    OFFSET 1.62519 -0.234802 1.16502
                  }
                }
              }
              JOINT lMid1
              {
                OFFSET 8.24714 1.18213 3.41376
                CHANNELS 3 Zrotation Xrotation Yrotation
                JOINT lMid2
                {
                  OFFSET 3.10165 -0.590103 1.0647
                  CHANNELS 3 Zrotation Xrotation Yrotation
                  End Site
                  {
                    OFFSET 2.48547 -0.328903 0.83742
                  }
                }
              }
              JOINT lRing1
              {
                OFFSET 8.82822 0.546677 1.51678
                CHANNELS 3 Zrotation Xrotation Yrotation
                JOINT lRing2
                {
                  OFFSET 2.60934 -0.819778 -0.0198488
                  CHANNELS 3 Zrotation Xrotation Yrotation
                  End Site
                  {
                    OFFSET 2.33842 -0.294052 0.168128
                  }
                }
              }
              JOINT lPinky1
              {
                OFFSET 8.27202 -0.0477905 -0.4584
                CHANNELS 3 Zrotation Xrotation Yrotation
                JOINT lPinky2
                {
                  OFFSET 1.82734 -0.647385 -0.700984
                  CHANNELS 3 Zrotation Xrotation Yrotation
                  End Site
                  {
                    OFFSET 1.69225 -0.51767 -0.607171
                  }
                }
              }
            }
          }
        }
      }
    }
  }
  JOINT rButtock
  {
    OFFSET -8.77824 4.35084 1.2192
    CHANNELS 3 Zrotation Xrotation Yrotation
    JOINT rThigh
    {
      OFFSET 0 -1.70687 -2.19456
      CHANNELS 3 Zrotation Xrotation Yrotation
      JOINT rShin
      {
        OFFSET 0 -36.8199 0.73152
        CHANNELS 3 Zrotation Xrotation Yrotation
        JOINT rFoot
        {
          OFFSET 0.73152 -45.1104 -5.12064
          CHANNELS 3 Zrotation Xrotation Yrotation
          End Site
          {
            OFFSET -1.1221 -3.69964 12.103
          }
        }
      }
    }
  }
  JOINT lButtock
  {
    OFFSET 8.77824 4.35084 1.2192
    CHANNELS 3 Zrotation Xrotation Yrotation
    JOINT lThigh
    {
      OFFSET 0 -1.70687 -2.19456
      CHANNELS 3 Zrotation Xrotation Yrotation
      JOINT lShin
      {
        OFFSET 0 -36.8199 0.73152
        CHANNELS 3 Zrotation Xrotation Yrotation
        JOINT lFoot
        {
          OFFSET -0.73152 -45.1104 -5.12064
          CHANNELS 3 Zrotation Xrotation Yrotation
          End Site
          {
            OFFSET 1.1221 -3.69964 12.103
          }
        }
      }
    }
  }
}
MOTION
Frames:	6
Frame Time:	0.00833333
-31.0266 76.3796 215.366 -170.919 -62.899 187.897 7.61828 -8.48642 11.9585 -2.70039 -5.47184 2.88329 -26.3685 22.3148 -1.85117 70.1662 -10.2839 -6.8152 -0.0 0.0 0.0 -0.0 0.0 0.0 -8.42319e-15 1.41563e-12 -7.18491e-13 78.2636 7.2701 1.74659 -21.3206 -14.7693 41.9915 -1.36896 -31.2483 -4.89199 1.8353e-10 3.23411e-09 -2.1233e-09 3.71541e-10 5.57963e-09 -3.68055e-09 1.83529e-10 3.23411e-09 -2.12332e-09 7.73091 5.47488 0.417314 1.83531e-10 3.2341e-09 -2.1233e-09 2.90554 0.965183 0.102902 1.83534e-10 3.2341e-09 -2.1233e-09 10.2786 0.731801 0.0259123 1.83517e-10 3.2341e-09 -2.12329e-09 2.22167 -0.733487 -0.20892 -8.55832e-15 1.41563e-12 -7.18721e-13 -64.3407 1.66451 6.65221 19.1996 -12.0372 -36.7707 8.70588 -61.0426 14.7139 -2.22911e-09 -3.53661e-09 -2.08613e-09 -3.74546e-09 -5.95717e-09 -3.68849e-09 -2.22911e-09 -3.53662e-09 -2.08612e-09 -7.73091 5.47488 -0.417314 -2.22911e-09 -3.53661e-09 -2.08613e-09 -2.90554 0.965183 -0.102902 -2.22912e-09 -3.53662e-09 -2.08613e-09 -10.2786 0.731801 -0.0259123 -2.22911e-09 -3.53661e-09 -2.08613e-09 -2.22167 -0.733487 0.20892 -2.03217e-16 0.0 -3.88251e-19 1.76417 -20.0391 -15.5597 -0.707986 53.6815 1.2879 -0.360615 4.59118 7.59914 2.03217e-16 0.0 3.88251e-19 3.40319 -45.4025 15.238 0.501185 46.6196 -0.827998 4.13291 -16.6467 10.2198
-31.0921 76.6627 215.29 -170.852 -62.9851 187.785 7.33618 -8.49745 11.7674 -2.61349 -5.51798 2.83644 -26.3275 22.3388 -1.91172 70.28 -10.5148 -6.79616 -0.0 0.0 0.0 -0.0 0.0 0.0 -2.02199e-14 1.76054e-12 -9.159e-13 78.041 9.14645 1.883 -21.5181 -15.0501 42.5065 -1.36555 -31.2154 -4.88557 2.08765e-10 4.356e-09 -2.7953e-09 4.31283e-10 7.51752e-09 -4.84516e-09 2.08763e-10 4.356e-09 -2.79532e-09 7.73091 5.47488 0.417314 2.08766e-10 4.35599e-09 -2.7953e-09 2.90554 0.965183 0.102902 2.08769e-10 4.35599e-09 -2.7953e-09 10.2786 0.731801 0.0259123 2.0875e-10 4.35599e-09 -2.79529e-09 2.22167 -0.733487 -0.20892 -2.03832e-14 1.76054e-12 -9.16149e-13 -64.6433 2.5893 6.47159 19.2035 -12.0418 -36.7797 8.42713 -60.5191 14.3946 -2.89507e-09 -4.61638e-09 -2.72123e-09 -4.86164e-09 -7.78149e-09 -4.8112e-09 -2.89507e-09 -4.61639e-09 -2.72121e-09 -7.73091 5.47488 -0.417314 -2.89507e-09 -4.61637e-09 -2.72122e-09 -2.90554 0.965183 -0.102902 -2.89508e-09 -4.61639e-09 -2.72123e-09 -10.2786 0.731801 -0.0259123 -2.89507e-09 -4.61637e-09 -2.72123e-09 -2.22167 -0.733487 0.20892 -2.03217e-16 0.0 -3.88251e-19 1.61649 -20.612 -15.7142 -0.733273 54.1893 1.2953 -0.397334 5.01522 7.48731 2.03217e-16 0.0 3.88251e-19 3.0412 -44.8487 14.754 0.480048 45.7507 -0.781449 4.06516 -16.309 10.1936
-31.1567 76.939 215.207 -170.753 -63.0741 187.642 7.07825 -8.51038 11.5662 -2.50957 -5.56375 2.78755 -26.2967 22.358 -1.96515 70.3923 -10.742 -6.76029 -0.0 0.0 0.0 -0.0 0.0 0.0 3.33996e-15 1.46233e-12 -9.83767e-13 77.8184 10.9943 2.02522 -21.7147 -15.335 43.0246 -1.34936 -31.0526 -4.85425 4.18826e-10 5.07428e-09 -3.31325e-09 8.06941e-10 8.75011e-09 -5.73575e-09 4.18824e-10 5.07427e-09 -3.31328e-09 7.73091 5.47488 0.417314 4.18827e-10 5.07427e-09 -3.31326e-09 2.90554 0.965183 0.102902 4.18829e-10 5.07427e-09 -3.31326e-09 10.2786 0.731801 0.0259123 4.18812e-10 5.07427e-09 -3.31325e-09 2.22167 -0.733487 -0.20892 3.18909e-15 1.46233e-12 -9.84025e-13 -64.951 3.59047 6.3065 19.2134 -12.0535 -36.803 8.1415 -59.9607 14.0657 -3.16684e-09 -4.38954e-09 -2.48903e-09 -5.34047e-09 -7.40594e-09 -4.42466e-09 -3.16684e-09 -4.38954e-09 -2.48901e-09 -7.73091 5.47488 -0.417314 -3.16683e-09 -4.38953e-09 -2.48902e-09 -2.90554 0.965183 -0.102902 -3.16684e-09 -4.38955e-09 -2.48903e-09 -10.2786 0.731801 -0.0259123 -3.16684e-09 -4.38953e-09 -2.48903e-09 -2.22167 -0.733487 0.20892 -2.03217e-16 0.0 -3.88251e-19 1.49951 -21.174 -15.873 -0.757289 54.6647 1.3047 -0.380078 5.02807 7.43844 2.03217e-16 0.0 3.88251e-19 2.77328 -44.2925 14.3595 0.459488 44.899 -0.740054 3.98763 -15.9863 10.1352
-31.2191 77.2075 215.117 -170.617 -63.171 187.469 6.82953 -8.5232 11.3571 -2.39225 -5.61012 2.73743 -26.2743 22.3747 -2.0141 70.5097 -10.9671 -6.71498 -0.0 0.0 0.0 -0.0 0.0 0.0 5.27895e-14 7.18561e-13 -9.69196e-13 77.5945 12.8248 2.17207 -21.9106 -15.6239 43.5483 -1.3244 -30.7969 -4.80535 7.0792e-10 5.58461e-09 -3.72009e-09 1.3167e-09 9.62056e-09 -6.43033e-09 7.07918e-10 5.58461e-09 -3.72011e-09 7.73091 5.47488 0.417314 7.07921e-10 5.58461e-09 -3.7201e-09 2.90554 0.965183 0.102902 7.07924e-10 5.5846e-09 -3.72009e-09 10.2786 0.731801 0.0259123 7.0791e-10 5.58461e-09 -3.72009e-09 2.22167 -0.733487 -0.20892 5.26755e-14 7.18564e-13 -9.69457e-13 -65.2587 4.64735 6.15313 19.2287 -12.0715 -36.8387 7.85644 -59.3791 13.7354 -3.20571e-09 -3.38481e-09 -1.7463e-09 -5.44236e-09 -5.71979e-09 -3.14963e-09 -3.20572e-09 -3.38481e-09 -1.74629e-09 -7.73091 5.47488 -0.417314 -3.20571e-09 -3.3848e-09 -1.74629e-09 -2.90554 0.965183 -0.102902 -3.20572e-09 -3.38481e-09 -1.7463e-09 -10.2786 0.731801 -0.0259123 -3.20571e-09 -3.38481e-09 -1.74631e-09 -2.22167 -0.733487 0.20892 -2.03217e-16 0.0 -3.88251e-19 1.39922 -21.7325 -16.0363 -0.780844 55.1215 1.31608 -0.32083 4.71504 7.4392 2.03217e-16 0.0 3.88251e-19 2.57669 -43.7334 14.0418 0.439241 44.0598 -0.70229 3.90014 -15.6769 10.0438
-31.2822 77.4649 215.039 -170.461 -63.3078 187.29 6.59832 -8.53656 11.1406 -2.2771 -5.65873 2.68512 -26.2505 22.3937 -2.06271 70.6282 -11.1982 -6.66487 -0.0 0.0 0.0 -0.0 0.0 0.0 9.31528e-14 -3.96933e-14 -8.94992e-13 77.3684 14.6343 2.31631 -22.105 -15.916 44.0746 -1.29201 -30.462 -4.74161 9.92684e-10 5.80867e-09 -3.96703e-09 1.81473e-09 9.9963e-09 -6.84739e-09 9.92682e-10 5.80866e-09 -3.96705e-09 7.73091 5.47488 0.417314 9.92684e-10 5.80867e-09 -3.96704e-09 2.90554 0.965183 0.102902 9.92688e-10 5.80867e-09 -3.96703e-09 10.2786 0.731801 0.0259123 9.92678e-10 5.80867e-09 -3.96703e-09 2.22167 -0.733487 -0.20892 9.30804e-14 -3.96891e-14 -8.9525e-13 -65.563 5.75217 6.00263 19.2465 -12.0927 -36.8807 7.57969 -58.7899 13.4128 -3.03004e-09 -2.12632e-09 -8.48013e-10 -5.18212e-09 -3.60748e-09 -1.59716e-09 -3.03005e-09 -2.12632e-09 -8.48007e-10 -7.73091 5.47488 -0.417314 -3.03004e-09 -2.12631e-09 -8.48003e-10 -2.90554 0.965183 -0.102902 -3.03005e-09 -2.12632e-09 -8.48013e-10 -10.2786 0.731801 -0.0259123 -3.03004e-09 -2.12632e-09 -8.48023e-10 -2.22167 -0.733487 0.20892 -2.03217e-16 0.0 -3.88251e-19 1.30964 -22.287 -16.2132 -0.8024 55.5303 1.32725 -0.233806 4.18119 7.45918 2.03217e-16 0.0 3.88251e-19 2.42246 -43.1877 13.7612 0.419974 43.2442 -0.668517 3.80882 -15.3809 9.93369
-31.3458 77.7102 214.968 -170.279 -63.4729 187.101 6.3929 -8.5511 10.9169 -2.1797 -5.71119 2.62966 -26.216 22.4194 -2.11513 70.7437 -11.4438 -6.61461 -0.0 0.0 0.0 -0.0 0.0 0.0 8.94542e-14 -3.81371e-13 -7.83957e-13 77.1403 16.4192 2.45048 -22.2972 -16.2102 44.6006 -1.25352 -30.0617 -4.66577 1.18975e-09 5.66813e-09 -4.00529e-09 2.15518e-09 9.74477e-09 -6.90545e-09 1.18975e-09 5.66812e-09 -4.00531e-09 7.73091 5.47488 0.417314 1.18975e-09 5.66813e-09 -4.0053e-09 2.90554 0.965183 0.102902 1.18976e-09 5.66813e-09 -4.0053e-09 10.2786 0.731801 0.0259123 1.18975e-09 5.66813e-09 -4.00529e-09 2.22167 -0.733487 -0.20892 8.94082e-14 -3.81366e-13 -7.84205e-13 -65.86 6.8972 5.84604 19.2643 -12.1137 -36.9225 7.31764 -58.2084 13.1054 -2.65816e-09 -1.13818e-09 -1.49136e-10 -4.57451e-09 -1.95346e-09 -3.78278e-10 -2.65817e-09 -1.13818e-09 -1.49133e-10 -7.73091 5.47488 -0.417314 -2.65816e-09 -1.13818e-09 -1.49127e-10 -2.90554 0.965183 -0.102902 -2.65816e-09 -1.13818e-09 -1.49136e-10 -10.2786 0.731801 -0.0259123 -2.65816e-09 -1.13818e-09 -1.49149e-10 -2.22167 -0.733487 0.20892 -2.03217e-16 0.0 -3.88251e-19 1.22439 -22.837 -16.4131 -0.820267 55.8619 1.33586 -0.133648 3.53153 7.46799 2.03217e-16 0.0 3.88251e-19 2.28336 -42.6706 13.4788 0.4023 42.4631 -0.639057 3.71945 -15.0983 9.81944
